<?xml version="1.0" encoding="UTF-8" standalone="no"?>
<!-- Created with Inkscape (http://www.inkscape.org/) -->

<svg
   width="36mm"
   height="36mm"
   viewBox="0 0 36 36"
   version="1.1"
   id="svg1"
   inkscape:version="1.3 (0e150ed6c4, 2023-07-21)"
   sodipodi:docname="logo.svg"
   xmlns:inkscape="http://www.inkscape.org/namespaces/inkscape"
   xmlns:sodipodi="http://sodipodi.sourceforge.net/DTD/sodipodi-0.dtd"
   xmlns="http://www.w3.org/2000/svg"
   xmlns:svg="http://www.w3.org/2000/svg">
  <sodipodi:namedview
     id="namedview1"
     pagecolor="#ffffff"
     bordercolor="#666666"
     borderopacity="1.0"
     inkscape:showpageshadow="2"
     inkscape:pageopacity="0.0"
     inkscape:pagecheckerboard="0"
     inkscape:deskcolor="#d1d1d1"
     inkscape:document-units="mm"
     showguides="true"
     inkscape:zoom="2.5478395"
     inkscape:cx="-32.57662"
     inkscape:cy="98.318595"
     inkscape:window-width="1680"
     inkscape:window-height="961"
     inkscape:window-x="1280"
     inkscape:window-y="66"
     inkscape:window-maximized="1"
     inkscape:current-layer="layer1">
    <sodipodi:guide
       position="102.67788,-116.85577"
       orientation="0,-1"
       id="guide1"
       inkscape:locked="false" />
  </sodipodi:namedview>
  <defs
     id="defs1" />
  <g
     inkscape:label="Ebene 1"
     inkscape:groupmode="layer"
     id="layer1">
    <g
       id="g1"
       transform="translate(-86.981007,-130.38852)">
      <path
         style="fill:#090909;stroke:none;stroke-width:0.264583"
         d="m 96.095418,148.36273 6.963452,-10.4646 h -3.353387 l -7.358329,10.4646 7.47822,10.51618 h 3.281376 m -3.748137,-10.51618 c 0,0 4.966827,7.09337 7.522527,10.51618 h 3.32539 l -6.96736,-10.51618 5.37986,-7.36424 c 0,0 5.82978,-0.58826 5.82514,3.1874 -0.006,4.79233 -7.54493,4.17684 -7.54493,4.17684 0.56165,1.10543 7.19291,10.51618 7.19291,10.51618 h 3.52271 l -5.85011,-7.98467 c 0,0 5.80511,-1.0122 5.70468,-6.76436 -0.1021,-5.84747 -7.52748,-6.23175 -7.52748,-6.23175 h -2.96611 c 0,0 -5.26188,7.01639 -7.617227,10.4646 z"
         id="path1"
         sodipodi:nodetypes="cccccccccccsccccscccc" />
    </g>
  </g>
</svg>
